<?xml version="1.0" standalone="no"?>
<!DOCTYPE svg PUBLIC "-//W3C//DTD SVG 20010904//EN"
 "http://www.w3.org/TR/2001/REC-SVG-20010904/DTD/svg10.dtd">
<svg version="1.0" xmlns="http://www.w3.org/2000/svg"
 width="700.000000pt" height="700.000000pt" viewBox="0 0 700.000000 700.000000"
 preserveAspectRatio="xMidYMid meet">
<metadata>
Created by potrace 1.14, written by Peter Selinger 2001-2017
</metadata>
<g transform="translate(0.000000,700.000000) scale(0.100000,-0.100000)"
fill="#000000" stroke="none">
<path d="M3890 4570 c-120 -15 -259 -72 -353 -144 l-46 -35 -72 49 c-140 97
-282 135 -466 128 -204 -9 -345 -70 -488 -213 -147 -147 -217 -316 -218 -525
0 -75 5 -135 15 -172 l16 -58 -574 0 -574 0 0 428 c0 403 -1 430 -18 445 -15
14 -42 17 -153 17 -92 0 -139 -4 -147 -12 -9 -9 -12 -237 -12 -964 l0 -953 22
-15 c17 -12 50 -16 145 -16 110 0 125 2 143 20 19 19 20 33 20 440 l0 420 650
0 c563 0 655 2 680 15 50 26 51 66 5 215 -67 219 -12 446 145 594 225 212 552
203 792 -22 41 -38 57 -47 87 -47 32 0 48 9 105 62 151 138 339 191 524 148
206 -49 372 -225 417 -443 9 -40 21 -81 27 -92 27 -43 99 -53 142 -19 21 17
26 29 26 67 0 55 -29 167 -64 246 -104 234 -332 404 -587 436 -91 11 -107 11
-189 0z"/>
<path d="M410 4301 c-7 -13 -10 -280 -10 -795 0 -691 2 -776 16 -790 12 -13
41 -16 148 -16 116 0 135 2 149 18 16 17 17 86 17 791 0 513 -3 779 -10 792
-10 17 -23 19 -155 19 -132 0 -145 -2 -155 -19z"/>
<path d="M22 4124 l-22 -15 0 -594 c0 -526 2 -595 16 -609 23 -23 275 -23 298
0 14 14 16 83 16 609 l0 594 -22 15 c-17 12 -50 16 -143 16 -93 0 -126 -4
-143 -16z"/>
</g>
</svg>
